<?xml version="1.0" encoding="UTF-8" standalone="no"?>
<!-- Generator: Adobe Illustrator 13.0.2, SVG Export Plug-In . SVG Version: 6.00 Build 14948)  -->

<svg
   xmlns:dc="http://purl.org/dc/elements/1.1/"
   xmlns:cc="http://creativecommons.org/ns#"
   xmlns:rdf="http://www.w3.org/1999/02/22-rdf-syntax-ns#"
   xmlns:svg="http://www.w3.org/2000/svg"
   xmlns="http://www.w3.org/2000/svg"
   xmlns:sodipodi="http://sodipodi.sourceforge.net/DTD/sodipodi-0.dtd"
   xmlns:inkscape="http://www.inkscape.org/namespaces/inkscape"
   version="1.0"
   id="Layer_1"
   x="0px"
   y="0px"
   width="310"
   height="75"
   viewBox="0 0 760.9095 135"
   enable-background="new 0 0 540 180"
   xml:space="preserve"
   sodipodi:version="0.32"
   inkscape:version="0.48.1 r9760"
   sodipodi:docname="sugar.svg"
   inkscape:output_extension="org.inkscape.output.svg.inkscape"><metadata
   id="metadata48"><rdf:RDF><cc:Work
       rdf:about=""><dc:format>image/svg+xml</dc:format><dc:type
         rdf:resource="http://purl.org/dc/dcmitype/StillImage" /><dc:title></dc:title></cc:Work></rdf:RDF></metadata><defs
   id="defs46"><inkscape:perspective
   sodipodi:type="inkscape:persp3d"
   inkscape:vp_x="0 : 90 : 1"
   inkscape:vp_y="0 : 1000 : 0"
   inkscape:vp_z="540 : 90 : 1"
   inkscape:persp3d-origin="270 : 60 : 1"
   id="perspective50" />
	
	
	
	
	
	
	
	
	

		
		
	
		
		
	
		
		
	
		
		
	
		
		
	</defs><sodipodi:namedview
   inkscape:window-height="719"
   inkscape:window-width="1278"
   inkscape:pageshadow="2"
   inkscape:pageopacity="0.0"
   guidetolerance="10.0"
   gridtolerance="10.0"
   objecttolerance="10.0"
   borderopacity="1.0"
   bordercolor="#666666"
   pagecolor="#ffffff"
   id="base"
   showgrid="false"
   inkscape:zoom="2"
   inkscape:cx="176.94646"
   inkscape:cy="-1.5"
   inkscape:window-x="0"
   inkscape:window-y="32"
   inkscape:current-layer="Layer_1"
   inkscape:window-maximized="0" />


<g
   id="g2997"
   transform="matrix(0.85676388,0,0,0.85676388,-7.2142537,60.23393)"><g
     transform="matrix(0.9767211,0,0,0.9767211,5.269205,-85.034696)"
     id="g3256"><path
       inkscape:connector-curvature="0"
       d="m 59.160105,148.2122 c -21.105291,0 -40.331502,-10.5049 -40.331502,-22.03719 0,-6.02872 4.397891,-10.75507 10.016039,-10.75507 3.861283,0 7.101934,2.2591 10.531639,4.65187 4.949776,3.45262 10.558375,7.36165 20.339528,7.36165 9.683762,0 15.678108,-5.16366 15.678108,-9.94538 0,-6.52523 -10.065689,-10.70733 -20.723365,-15.1415 C 39.777305,96.153628 22.896127,89.137627 22.896127,72.013925 c 0,-20.190576 18.970319,-31.088866 36.819682,-31.088866 15.067024,0 36.082563,7.890614 36.082563,20.734822 0,4.82374 -3.366688,10.017948 -10.755067,10.017948 -3.949127,0 -6.794483,-2.14834 -9.542449,-4.224113 -3.574838,-2.700225 -7.627084,-5.757551 -15.785047,-5.757551 -2.308749,0 -13.82958,0.433487 -13.82958,9.021118 0,5.213305 9.320931,8.812968 19.186108,12.6246 14.841687,5.728906 33.311681,12.863305 33.311681,31.186257 0,23.14287 -20.333798,33.68406 -39.223913,33.68406 l 0,0 z"
       id="path9"
       style="fill:#033cd2" /><path
       inkscape:connector-curvature="0"
       d="m 59.715809,44.286018 c 13.493485,0 32.717785,7.208874 32.717785,17.375773 0,3.51182 -2.402321,6.65317 -7.394109,6.65317 -7.023639,0 -9.798339,-9.981665 -25.325586,-9.981665 -9.242635,0 -17.190538,4.065614 -17.190538,12.383987 0,17.190538 52.497789,15.345831 52.497789,43.810857 0,20.52094 -17.561008,30.31737 -35.862954,30.31737 -20.702359,0 -36.968634,-10.35213 -36.968634,-18.67241 0,-4.43418 3.14326,-7.3922 6.65317,-7.3922 7.208874,0 13.124925,12.01352 30.871167,12.01352 11.830192,0 19.039066,-6.65317 19.039066,-13.30825 0,-19.224305 -52.499699,-18.114807 -52.499699,-45.472245 0.0038,-18.116712 17.011033,-27.727907 33.462543,-27.727907 m 0,-6.721917 c -19.478282,0 -40.18255,12.074625 -40.18255,34.451734 0,19.367523 18.765988,27.170294 33.846379,33.437715 8.744221,3.63404 18.65332,7.75503 18.65332,12.03643 0,2.69068 -4.386433,6.58443 -12.317149,6.58443 -8.725125,0 -13.653894,-3.43735 -18.420344,-6.76011 -3.700874,-2.58374 -7.531602,-5.25341 -12.450823,-5.25341 -7.501049,0 -13.375087,6.20059 -13.375087,14.11603 0,13.52785 20.415913,25.39433 43.69055,25.39433 20.509485,0 42.584875,-11.58958 42.584875,-37.03929 0,-20.627883 -20.496121,-28.543322 -35.461934,-34.323789 -6.370544,-2.46152 -17.035859,-6.578694 -17.035859,-9.487069 0,-5.388991 8.721306,-5.662069 10.468622,-5.662069 7.031278,0 10.298664,2.467249 13.757014,5.07963 3.04205,2.297292 6.490851,4.902034 11.568572,4.902034 8.178969,0 14.116026,-5.625786 14.116026,-13.375087 C 99.155511,46.144093 75.835042,37.564101 59.715809,37.564101 l 0,0 z"
       id="path11"
       style="fill:#00bef5;fill-opacity:0.96078431" /><path
       inkscape:connector-curvature="0"
       d="m 163.41856,148.2122 c -20.48275,0 -42.36908,-11.18091 -42.36908,-42.55432 l 0,-52.683021 c 0,-7.205055 4.61941,-12.0498 11.49792,-12.0498 6.87469,0 11.49218,4.844745 11.49218,12.0498 l 0,52.127321 c 0,15.23698 6.15667,22.33128 19.37898,22.33128 13.21468,0 19.37135,-7.09621 19.37135,-22.33128 l 0,-52.127321 c 0,-7.205055 4.6175,-12.0498 11.496,-12.0498 6.87851,0 11.49792,4.844745 11.49792,12.0498 l 0,52.683021 c -0.002,31.3715 -21.88824,42.55432 -42.36527,42.55432 l 0,0 z"
       id="path15"
       style="fill:#033cd2" /><path
       inkscape:connector-curvature="0"
       d="m 194.28591,44.286018 c 4.98988,0 8.13314,3.326585 8.13314,8.686932 l 0,52.68302 c 0,28.83932 -19.2243,39.18954 -39.00239,39.18954 -19.78001,0 -39.00622,-10.35213 -39.00622,-39.18954 l 0,-52.68302 c 0,-5.360347 3.14326,-8.686932 8.13505,-8.686932 4.98988,0 8.13123,3.326585 8.13123,8.686932 l 0,52.12923 c 0,16.82198 7.3941,25.69224 22.73803,25.69224 15.34201,0 22.73612,-8.87217 22.73612,-25.69224 l 0,-52.12923 c 0.002,-5.360347 3.14517,-8.686932 8.13504,-8.686932 m 0,-6.721917 c -8.74804,0 -14.85505,6.33617 -14.85505,15.408849 l 0,52.12923 c 0,16.71695 -8.09495,18.97032 -16.0142,18.97032 -7.91926,0 -16.01612,-2.25337 -16.01612,-18.97032 l 0,-52.12923 c 0,-9.072679 -6.10892,-15.408849 -14.85314,-15.408849 -8.74804,0 -14.85697,6.33617 -14.85697,15.408849 l 0,52.68302 c 0,33.85211 23.62219,45.91146 45.72813,45.91146 22.10404,0 45.72432,-12.05935 45.72432,-45.91146 l 0,-52.68302 c -0.002,-9.072679 -6.11084,-15.408849 -14.85697,-15.408849 l 0,0 z"
       id="path17"
       style="fill:#00bef5;fill-opacity:0.96078431" /><path
       inkscape:connector-curvature="0"
       d="m 273.95782,187.02745 c -16.21854,0 -41.07435,-9.53672 -41.07435,-21.29052 0,-5.26678 3.19291,-10.94031 10.20127,-10.94031 3.86319,0 7.19551,2.05477 11.05106,4.42845 5.35271,3.29603 11.41771,7.02937 21.11484,7.02937 20.67562,0 23.3262,-18.00023 23.43696,-26.38353 -5.79957,5.37563 -13.44193,8.33938 -21.95508,8.33938 -30.60382,0 -46.61803,-26.98506 -46.61803,-53.64166 0,-26.656602 16.01421,-53.641661 46.61803,-53.641661 8.45013,0 16.59664,3.637855 22.31982,8.249625 1.2489,-5.037618 5.63342,-8.249625 11.69078,-8.249625 5.30306,0 10.94031,3.966313 10.94031,11.310771 l 0,84.47655 c -0.002,30.5618 -18.73353,50.31316 -47.72561,50.31316 l 0,0 z m 2.77279,-125.331285 c -17.4407,0 -23.62792,17.70423 -23.62792,32.868646 0,15.164419 6.18722,32.868649 23.62792,32.868649 17.43497,0 23.62219,-17.70423 23.62219,-32.868649 0,-15.162506 -6.18531,-32.868646 -23.62219,-32.868646 l 0,0 z"
       id="path21"
       style="fill:#033cd2" /><path
       inkscape:connector-curvature="0"
       d="m 310.74121,44.286018 c 3.14326,0 7.57935,2.218996 7.57935,7.949812 l 0,84.47655 c 0,29.20787 -17.74624,46.95411 -44.36465,46.95411 -16.82198,0 -37.70958,-9.6131 -37.70958,-17.92956 0,-3.3285 1.6633,-7.57935 6.84032,-7.57935 7.39411,0 14.60298,11.45782 32.16399,11.45782 20.70427,0 26.80555,-16.26628 26.80555,-30.31547 l 0,-8.5036 -0.37047,0 c -4.99178,8.5036 -13.86395,14.05109 -24.95511,14.05109 -27.72791,0 -43.25516,-24.21608 -43.25516,-50.282609 0,-26.062706 15.52725,-50.278793 43.25516,-50.278793 10.53546,0 20.70236,6.469845 24.95511,12.385896 l 0.37047,0 0,-4.436084 c -0.002,-5.732725 4.24894,-7.949812 8.68502,-7.949812 M 276.7287,130.79633 c 19.96333,0 26.98888,-19.59287 26.98888,-36.231519 0,-16.634835 -7.02555,-36.229605 -26.98888,-36.229605 -19.96524,0 -26.98888,19.59477 -26.98888,36.229605 0,16.638649 7.02555,36.231519 26.98888,36.231519 m 34.01251,-93.232229 c -5.79574,0 -10.47435,2.46152 -13.09819,6.490851 -5.88931,-3.782988 -13.29297,-6.490851 -20.91432,-6.490851 -32.81136,0 -49.97707,28.675086 -49.97707,57.00071 0,28.327529 17.16762,57.004529 49.97707,57.004529 6.53668,0 12.61123,-1.585 17.85891,-4.55257 -1.61555,7.77985 -6.40492,15.8748 -19.33888,15.8748 -8.74613,0 -14.38147,-3.46981 -19.35416,-6.53286 -4.11144,-2.53218 -7.99755,-4.92495 -12.80983,-4.92495 -7.85815,0 -13.56223,6.01535 -13.56223,14.30126 0,14.29935 26.54011,24.64957 44.43149,24.64957 15.04983,0 27.85012,-5.04526 37.01255,-14.59152 9.20635,-9.58828 14.07402,-23.10659 14.07402,-39.08451 l 0,-84.474639 c 0.002,-9.529081 -7.36547,-14.66982 -14.29936,-14.66982 l 0,0 z M 276.7287,124.0725 c -19.28923,0 -20.26696,-24.58083 -20.26696,-29.507689 0,-4.92686 0.97773,-29.507688 20.26696,-29.507688 19.28923,0 20.26696,24.580828 20.26696,29.507688 0,4.926859 -0.97773,29.507689 -20.26696,29.507689 l 0,0 z"
       id="path23"
       style="fill:#00bef5;fill-opacity:0.96078431" /><path
       inkscape:connector-curvature="0"
       d="m 428.1246,148.2122 c -5.00897,0 -10.08097,-3.30367 -10.84291,-9.63793 -6.66463,6.33235 -14.8035,9.63793 -23.91055,9.63793 -30.60382,0 -46.61802,-26.98697 -46.61802,-53.64548 0,-26.654692 16.0142,-53.641661 46.61802,-53.641661 9.08032,0 16.69977,2.833899 23.99457,9.057401 0.98919,-5.956153 5.9046,-9.057401 10.75889,-9.057401 5.30115,0 10.93839,3.966313 10.93839,11.306952 l 0,84.665599 c -0.002,7.34828 -5.63724,11.31459 -10.93839,11.31459 l 0,0 z M 393.37114,61.696165 c -17.4407,0 -23.62792,17.70805 -23.62792,32.870555 0,15.1606 6.18722,32.86674 23.62792,32.86674 17.4407,0 23.62792,-17.70423 23.62792,-32.86674 0,-15.162505 -6.18722,-32.870555 -23.62792,-32.870555 l 0,0 z"
       id="path27"
       style="fill:#033cd2" /><path
       inkscape:connector-curvature="0"
       d="m 428.1246,44.286018 c 3.14326,0 7.57743,2.218996 7.57743,7.949812 l 0,84.66178 c 0,5.73273 -4.43417,7.94981 -7.57743,7.94981 -3.3285,0 -7.58125,-2.21708 -7.58125,-7.94981 l 0,-6.84031 -0.36856,0 c -7.02364,9.98166 -16.26628,14.79012 -26.80365,14.79012 -27.72981,0 -43.25515,-24.21608 -43.25515,-50.282609 0,-26.062706 15.52534,-50.278793 43.25515,-50.278793 11.2764,0 19.2243,4.806552 26.80365,13.124925 l 0.36856,0 0,-5.175113 c 0,-5.732725 4.25275,-7.949812 7.58125,-7.949812 m -34.75346,86.510312 c 19.96524,0 26.99079,-19.59287 26.99079,-36.231519 0,-16.634835 -7.02555,-36.229605 -26.99079,-36.229605 -19.96524,0 -26.98888,19.59477 -26.98888,36.229605 0,16.638649 7.02364,36.231519 26.98888,36.231519 M 428.1246,37.564101 c -4.73208,0 -9.66658,2.394683 -12.32479,6.945344 -6.80594,-4.751173 -14.03391,-6.945344 -22.43058,-6.945344 -32.81135,0 -49.97707,28.675086 -49.97707,57.00071 0,28.327529 17.16572,57.004529 49.97707,57.004529 8.27063,0 15.79651,-2.46534 22.27017,-7.22797 2.6162,4.73399 7.65573,7.22797 12.4852,7.22797 6.93198,0 14.29935,-5.14074 14.29935,-14.67173 l 0,-84.663689 c 0,-9.529081 -7.36737,-14.66982 -14.29935,-14.66982 l 0,0 z M 393.37114,124.0725 c -19.28923,0 -20.26696,-24.58083 -20.26696,-29.507689 0,-4.92686 0.97773,-29.507688 20.26696,-29.507688 19.29114,0 20.26887,24.580828 20.26887,29.507688 0,4.926859 -0.97773,29.507689 -20.26887,29.507689 l 0,0 z"
       id="path29"
       style="fill:#00bef5;fill-opacity:0.96078431" /><path
       inkscape:connector-curvature="0"
       d="m 479.14624,148.20838 c -6.8766,0 -11.49791,-4.84092 -11.49791,-12.0498 l 0,-83.18563 c 0,-7.206965 4.62131,-12.047891 11.49791,-12.047891 6.28079,0 10.67486,4.038879 11.38907,10.233737 4.84092,-5.440552 11.65068,-10.233737 19.29495,-10.233737 7.19551,0 12.41836,4.911583 12.41836,11.677421 0,4.441812 -2.24,10.16308 -12.90722,12.177746 -5.66207,0.977733 -18.70488,5.318335 -18.70488,24.609473 l 0,46.768881 c 0,7.20888 -4.61941,12.0498 -11.49028,12.0498 l 0,0 z"
       id="path33"
       style="fill:#033cd2" /><path
       inkscape:connector-curvature="0"
       d="m 509.82835,44.286018 c 5.72891,0 9.05932,3.697054 9.05932,8.316462 0,4.621318 -3.33041,7.581253 -10.17072,8.874076 -9.6112,1.663293 -21.4433,8.872167 -21.4433,27.915052 l 0,46.765062 c 0,5.36226 -3.14135,8.69075 -8.13123,8.69075 -4.9937,0 -8.13505,-3.32849 -8.13505,-8.69075 l 0,-83.18372 c 0,-5.360347 3.14135,-8.686932 8.13505,-8.686932 4.98988,0 8.13123,3.326585 8.13123,8.686932 l 0,8.318372 0.37238,0 c 3.69323,-7.577434 12.75445,-17.005304 22.18232,-17.005304 m 0,-6.721917 c -6.71427,0 -12.81365,3.179543 -17.72905,7.399837 -2.45388,-4.575486 -7.11912,-7.399837 -12.95497,-7.399837 -8.74804,0 -14.85696,6.33617 -14.85696,15.408849 l 0,83.18372 c 0,9.07459 6.10892,15.41076 14.85696,15.41076 8.74422,0 14.85124,-6.33617 14.85124,-15.41076 l 0,-46.765062 c 0,-16.13642 9.94156,-20.265052 15.86907,-21.290526 0.0344,-0.0057 0.0668,-0.01146 0.10312,-0.01719 13.61188,-2.574188 15.64182,-10.802808 15.64182,-15.479505 0,-8.715576 -6.63598,-15.040289 -15.78123,-15.040289 l 0,0 z"
       id="path35"
       style="fill:#00bef5;fill-opacity:0.96078431" /></g><path
     style="fill:#969696"
     inkscape:connector-curvature="0"
     d="m 552.13336,48.213486 c 0,5.243511 -3.07366,8.498308 -7.95305,8.498308 -4.88126,0 -7.95492,-3.254797 -7.95492,-8.498308 V -75.425716 c 0,-5.243523 3.07366,-8.496449 7.95492,-8.496449 4.87939,0 7.95305,3.254794 7.95305,8.496449 V 48.213486 z"
     id="path3028" /><path
     style="fill:#969696"
     inkscape:connector-curvature="0"
     d="m 666.19308,48.936143 c 0,5.605784 -4.33973,7.775651 -7.41152,7.775651 -3.25293,0 -7.41152,-2.169867 -7.41152,-7.775651 v -6.686971 h -0.3604 c -6.87185,9.762498 -15.90984,14.462622 -26.21202,14.462622 -27.11395,0 -42.29552,-23.68173 -42.29552,-49.1691946 0,-25.4874884 15.18344,-49.1673784 42.29552,-49.1673784 11.02858,0 18.79864,4.698258 26.21202,12.83431 h 0.3604 v -5.060524 c 0,-5.603923 4.15859,-7.773786 7.41152,-7.773786 3.07179,0 7.41152,2.169863 7.41152,7.773786 v 82.787136 z m -41.39546,-5.966181 c 19.52317,0 26.39129,-19.159006 26.39129,-35.4273626 0,-16.2683721 -6.86812,-35.4292704 -26.39129,-35.4292704 -19.51943,0 -26.38941,19.1608983 -26.38941,35.4292704 0,16.2702266 6.86998,35.4273626 26.38941,35.4273626 z"
     id="path3030" /><path
     style="fill:#969696"
     inkscape:connector-curvature="0"
     d="m 701.43935,-75.425716 c 0,-5.243523 3.07366,-8.496449 7.95492,-8.496449 4.88125,0 7.95492,3.254794 7.95492,8.496449 v 46.814513 h 0.35853 c 4.15859,-5.964322 13.01544,-13.013576 25.66675,-13.013576 26.03275,0 41.03506,23.67989 41.03506,49.1673784 0,25.4874646 -15.00044,49.1691946 -41.03506,49.1691946 -12.65131,0 -21.14589,-4.520854 -25.66675,-13.198432 h -0.35853 v 4.701994 c 0,5.243511 -3.07367,8.498298 -7.95492,8.498298 -4.88126,0 -7.95492,-3.254787 -7.95492,-8.498298 V -75.425716 z m 40.67279,118.395678 c 19.51943,0 26.38755,-19.159006 26.38755,-35.4273626 0,-16.2683721 -6.86812,-35.4292704 -26.38755,-35.4292704 -19.52316,0 -26.39502,19.1608983 -26.39502,35.4292704 0,16.2702266 6.87186,35.4273626 26.39502,35.4273626 z"
     id="path3032" /><path
     style="fill:#969696"
     inkscape:connector-curvature="0"
     d="m 845.32441,-41.624779 c 13.19471,0 31.99708,7.049254 31.99708,16.991035 0,3.43406 -2.35287,6.505854 -7.23226,6.505854 -6.86812,0 -9.57951,-9.760648 -24.76482,-9.760648 -9.03798,0 -16.8099,3.975592 -16.8099,12.109777 0,16.8099038 51.33537,15.0041735 51.33537,42.838911 0,20.066536 -17.17217,29.647904 -35.06513,29.647904 -20.2477,0 -36.1538,-10.124768 -36.1538,-18.260806 0,-4.334127 3.07366,-7.226641 6.50585,-7.226641 7.04926,0 12.83431,11.747495 30.18761,11.747495 11.56825,0 18.61937,-6.505854 18.61937,-13.015435 0,-18.796741 -51.33537,-17.713677 -51.33537,-44.465364 -0.002,-17.711832 16.6269,-27.112082 32.716,-27.112082 z"
     id="path3034" /></g></svg>