<?xml version="1.0" encoding="UTF-8" standalone="no"?>
<!-- Generator: Adobe Illustrator 13.0.2, SVG Export Plug-In . SVG Version: 6.00 Build 14948)  -->
<svg
   xmlns:dc="http://purl.org/dc/elements/1.1/"
   xmlns:cc="http://creativecommons.org/ns#"
   xmlns:rdf="http://www.w3.org/1999/02/22-rdf-syntax-ns#"
   xmlns:svg="http://www.w3.org/2000/svg"
   xmlns="http://www.w3.org/2000/svg"
   xmlns:sodipodi="http://sodipodi.sourceforge.net/DTD/sodipodi-0.dtd"
   xmlns:inkscape="http://www.inkscape.org/namespaces/inkscape"
   version="1.0"
   id="Layer_1"
   x="0px"
   y="0px"
   width="220"
   height="100"
   viewBox="0 0 540 180"
   enable-background="new 0 0 540 180"
   xml:space="preserve"
   sodipodi:version="0.32"
   inkscape:version="0.46"
   sodipodi:docname="sugar.svg"
   inkscape:output_extension="org.inkscape.output.svg.inkscape"><metadata
   id="metadata48"><rdf:RDF><cc:Work
       rdf:about=""><dc:format>image/svg+xml</dc:format><dc:type
         rdf:resource="http://purl.org/dc/dcmitype/StillImage" /></cc:Work></rdf:RDF></metadata><defs
   id="defs46"><inkscape:perspective
   sodipodi:type="inkscape:persp3d"
   inkscape:vp_x="0 : 90 : 1"
   inkscape:vp_y="0 : 1000 : 0"
   inkscape:vp_z="540 : 90 : 1"
   inkscape:persp3d-origin="270 : 60 : 1"
   id="perspective50" />
	
	
	
	
	
	
	
	
	

		
		
	
		
		
	
		
		
	
		
		
	
		
		
	</defs><sodipodi:namedview
   inkscape:window-height="735"
   inkscape:window-width="1278"
   inkscape:pageshadow="2"
   inkscape:pageopacity="0.0"
   guidetolerance="10.0"
   gridtolerance="10.0"
   objecttolerance="10.0"
   borderopacity="1.0"
   bordercolor="#666666"
   pagecolor="#ffffff"
   id="base"
   showgrid="false"
   inkscape:zoom="2"
   inkscape:cx="182.5"
   inkscape:cy="52.8875"
   inkscape:window-x="0"
   inkscape:window-y="16"
   inkscape:current-layer="Layer_1" />

<g
   id="g3256"
   transform="matrix(0.9767211,0,0,0.9767211,5.269205,0.8744508)"><path
     style="fill:#033cd2"
     id="path9"
     d="M 59.160105,148.2122 C 38.054814,148.2122 18.828603,137.7073 18.828603,126.17501 C 18.828603,120.14629 23.226494,115.41994 28.844642,115.41994 C 32.705925,115.41994 35.946576,117.67904 39.376281,120.07181 C 44.326057,123.52443 49.934656,127.43346 59.715809,127.43346 C 69.399571,127.43346 75.393917,122.2698 75.393917,117.48808 C 75.393917,110.96285 65.328228,106.78075 54.670552,102.34658 C 39.777305,96.153628 22.896127,89.137627 22.896127,72.013925 C 22.896127,51.823349 41.866446,40.925059 59.715809,40.925059 C 74.782833,40.925059 95.798372,48.815673 95.798372,61.659881 C 95.798372,66.483621 92.431684,71.677829 85.043305,71.677829 C 81.094178,71.677829 78.248822,69.529489 75.500856,67.453716 C 71.926018,64.753491 67.873772,61.696165 59.715809,61.696165 C 57.40706,61.696165 45.886229,62.129652 45.886229,70.717283 C 45.886229,75.930588 55.20716,79.530251 65.072337,83.341883 C 79.914024,89.070789 98.384018,96.205188 98.384018,114.52814 C 98.384018,137.67101 78.05022,148.2122 59.160105,148.2122 L 59.160105,148.2122 z" /><path
     style="fill:#00bef5;fill-opacity:0.96078431"
     id="path11"
     d="M 59.715809,44.286018 C 73.209294,44.286018 92.433594,51.494892 92.433594,61.661791 C 92.433594,65.173611 90.031273,68.314961 85.039485,68.314961 C 78.015846,68.314961 75.241146,58.333296 59.713899,58.333296 C 50.471264,58.333296 42.523361,62.39891 42.523361,70.717283 C 42.523361,87.907821 95.02115,86.063114 95.02115,114.52814 C 95.02115,135.04908 77.460142,144.84551 59.158196,144.84551 C 38.455837,144.84551 22.189562,134.49338 22.189562,126.1731 C 22.189562,121.73892 25.332822,118.7809 28.842732,118.7809 C 36.051606,118.7809 41.967657,130.79442 59.713899,130.79442 C 71.544091,130.79442 78.752965,124.14125 78.752965,117.48617 C 78.752965,98.261865 26.253266,99.371363 26.253266,72.013925 C 26.257085,53.897213 43.264299,44.286018 59.715809,44.286018 M 59.715809,37.564101 C 40.237527,37.564101 19.533259,49.638726 19.533259,72.015835 C 19.533259,91.383358 38.299247,99.186129 53.379638,105.45355 C 62.123859,109.08759 72.032958,113.20858 72.032958,117.48998 C 72.032958,120.18066 67.646525,124.07441 59.715809,124.07441 C 50.990684,124.07441 46.061915,120.63706 41.295465,117.3143 C 37.594591,114.73056 33.763863,112.06089 28.844642,112.06089 C 21.343593,112.06089 15.469555,118.26148 15.469555,126.17692 C 15.469555,139.70477 35.885468,151.57125 59.160105,151.57125 C 79.66959,151.57125 101.74498,139.98167 101.74498,114.53196 C 101.74498,93.904077 81.248859,85.988638 66.283046,80.208171 C 59.912502,77.746651 49.247187,73.629477 49.247187,70.721102 C 49.247187,65.332111 57.968493,65.059033 59.715809,65.059033 C 66.747087,65.059033 70.014473,67.526282 73.472823,70.138663 C 76.514873,72.435955 79.963674,75.040697 85.041395,75.040697 C 93.220364,75.040697 99.157421,69.414911 99.157421,61.66561 C 99.155511,46.144093 75.835042,37.564101 59.715809,37.564101 L 59.715809,37.564101 z" /><path
     style="fill:#033cd2"
     id="path15"
     d="M 163.41856,148.2122 C 142.93581,148.2122 121.04948,137.03129 121.04948,105.65788 L 121.04948,52.974859 C 121.04948,45.769804 125.66889,40.925059 132.5474,40.925059 C 139.42209,40.925059 144.03958,45.769804 144.03958,52.974859 L 144.03958,105.10218 C 144.03958,120.33916 150.19625,127.43346 163.41856,127.43346 C 176.63324,127.43346 182.78991,120.33725 182.78991,105.10218 L 182.78991,52.974859 C 182.78991,45.769804 187.40741,40.925059 194.28591,40.925059 C 201.16442,40.925059 205.78383,45.769804 205.78383,52.974859 L 205.78383,105.65788 C 205.78192,137.02938 183.89559,148.2122 163.41856,148.2122 L 163.41856,148.2122 z" /><path
     style="fill:#00bef5;fill-opacity:0.96078431"
     id="path17"
     d="M 194.28591,44.286018 C 199.27579,44.286018 202.41905,47.612603 202.41905,52.97295 L 202.41905,105.65597 C 202.41905,134.49529 183.19475,144.84551 163.41666,144.84551 C 143.63665,144.84551 124.41044,134.49338 124.41044,105.65597 L 124.41044,52.97295 C 124.41044,47.612603 127.5537,44.286018 132.54549,44.286018 C 137.53537,44.286018 140.67672,47.612603 140.67672,52.97295 L 140.67672,105.10218 C 140.67672,121.92416 148.07082,130.79442 163.41475,130.79442 C 178.75676,130.79442 186.15087,121.92225 186.15087,105.10218 L 186.15087,52.97295 C 186.15278,47.612603 189.29604,44.286018 194.28591,44.286018 M 194.28591,37.564101 C 185.53787,37.564101 179.43086,43.900271 179.43086,52.97295 L 179.43086,105.10218 C 179.43086,121.81913 171.33591,124.0725 163.41666,124.0725 C 155.4974,124.0725 147.40054,121.81913 147.40054,105.10218 L 147.40054,52.97295 C 147.40054,43.900271 141.29162,37.564101 132.5474,37.564101 C 123.79936,37.564101 117.69043,43.900271 117.69043,52.97295 L 117.69043,105.65597 C 117.69043,139.50808 141.31262,151.56743 163.41856,151.56743 C 185.5226,151.56743 209.14288,139.50808 209.14288,105.65597 L 209.14288,52.97295 C 209.14097,43.900271 203.03204,37.564101 194.28591,37.564101 L 194.28591,37.564101 z" /><path
     style="fill:#033cd2"
     id="path21"
     d="M 273.95782,187.02745 C 257.73928,187.02745 232.88347,177.49073 232.88347,165.73693 C 232.88347,160.47015 236.07638,154.79662 243.08474,154.79662 C 246.94793,154.79662 250.28025,156.85139 254.1358,159.22507 C 259.48851,162.5211 265.55351,166.25444 275.25064,166.25444 C 295.92626,166.25444 298.57684,148.25421 298.6876,139.87091 C 292.88803,145.24654 285.24567,148.21029 276.73252,148.21029 C 246.1287,148.21029 230.11449,121.22523 230.11449,94.56863 C 230.11449,67.912028 246.1287,40.926969 276.73252,40.926969 C 285.18265,40.926969 293.32916,44.564824 299.05234,49.176594 C 300.30124,44.138976 304.68576,40.926969 310.74312,40.926969 C 316.04618,40.926969 321.68343,44.893282 321.68343,52.23774 L 321.68343,136.71429 C 321.68152,167.27609 302.9499,187.02745 273.95782,187.02745 L 273.95782,187.02745 z M 276.73061,61.696165 C 259.28991,61.696165 253.10269,79.400395 253.10269,94.564811 C 253.10269,109.72923 259.28991,127.43346 276.73061,127.43346 C 294.16558,127.43346 300.3528,109.72923 300.3528,94.564811 C 300.3528,79.402305 294.16749,61.696165 276.73061,61.696165 L 276.73061,61.696165 z" /><path
     style="fill:#00bef5;fill-opacity:0.96078431"
     id="path23"
     d="M 310.74121,44.286018 C 313.88447,44.286018 318.32056,46.505014 318.32056,52.23583 L 318.32056,136.71238 C 318.32056,165.92025 300.57432,183.66649 273.95591,183.66649 C 257.13393,183.66649 236.24633,174.05339 236.24633,165.73693 C 236.24633,162.40843 237.90963,158.15758 243.08665,158.15758 C 250.48076,158.15758 257.68963,169.6154 275.25064,169.6154 C 295.95491,169.6154 302.05619,153.34912 302.05619,139.29993 L 302.05619,130.79633 L 301.68572,130.79633 C 296.69394,139.29993 287.82177,144.84742 276.73061,144.84742 C 249.0027,144.84742 233.47545,120.63134 233.47545,94.564811 C 233.47545,68.502105 249.0027,44.286018 276.73061,44.286018 C 287.26607,44.286018 297.43297,50.755863 301.68572,56.671914 L 302.05619,56.671914 L 302.05619,52.23583 C 302.05428,46.503105 306.30513,44.286018 310.74121,44.286018 M 276.7287,130.79633 C 296.69203,130.79633 303.71758,111.20346 303.71758,94.564811 C 303.71758,77.929976 296.69203,58.335206 276.7287,58.335206 C 256.76346,58.335206 249.73982,77.929976 249.73982,94.564811 C 249.73982,111.20346 256.76537,130.79633 276.7287,130.79633 M 310.74121,37.564101 C 304.94547,37.564101 300.26686,40.025621 297.64302,44.054952 C 291.75371,40.271964 284.35005,37.564101 276.7287,37.564101 C 243.91734,37.564101 226.75163,66.239187 226.75163,94.564811 C 226.75163,122.89234 243.91925,151.56934 276.7287,151.56934 C 283.26538,151.56934 289.33993,149.98434 294.58761,147.01677 C 292.97206,154.79662 288.18269,162.89157 275.24873,162.89157 C 266.5026,162.89157 260.86726,159.42176 255.89457,156.35871 C 251.78313,153.82653 247.89702,151.43376 243.08474,151.43376 C 235.22659,151.43376 229.52251,157.44911 229.52251,165.73502 C 229.52251,180.03437 256.06262,190.38459 273.954,190.38459 C 289.00383,190.38459 301.80412,185.33933 310.96655,175.79307 C 320.1729,166.20479 325.04057,152.68648 325.04057,136.70856 L 325.04057,52.233921 C 325.04248,42.70484 317.6751,37.564101 310.74121,37.564101 L 310.74121,37.564101 z M 276.7287,124.0725 C 257.43947,124.0725 256.46174,99.49167 256.46174,94.564811 C 256.46174,89.637951 257.43947,65.057123 276.7287,65.057123 C 296.01793,65.057123 296.99566,89.637951 296.99566,94.564811 C 296.99566,99.49167 296.01793,124.0725 276.7287,124.0725 L 276.7287,124.0725 z" /><path
     style="fill:#033cd2"
     id="path27"
     d="M 428.1246,148.2122 C 423.11563,148.2122 418.04363,144.90853 417.28169,138.57427 C 410.61706,144.90662 402.47819,148.2122 393.37114,148.2122 C 362.76732,148.2122 346.75312,121.22523 346.75312,94.56672 C 346.75312,67.912028 362.76732,40.925059 393.37114,40.925059 C 402.45146,40.925059 410.07091,43.758958 417.36571,49.98246 C 418.3549,44.026307 423.27031,40.925059 428.1246,40.925059 C 433.42575,40.925059 439.06299,44.891372 439.06299,52.232011 L 439.06299,136.89761 C 439.06108,144.24589 433.42575,148.2122 428.1246,148.2122 L 428.1246,148.2122 z M 393.37114,61.696165 C 375.93044,61.696165 369.74322,79.404215 369.74322,94.56672 C 369.74322,109.72732 375.93044,127.43346 393.37114,127.43346 C 410.81184,127.43346 416.99906,109.72923 416.99906,94.56672 C 416.99906,79.404215 410.81184,61.696165 393.37114,61.696165 L 393.37114,61.696165 z" /><path
     style="fill:#00bef5;fill-opacity:0.96078431"
     id="path29"
     d="M 428.1246,44.286018 C 431.26786,44.286018 435.70203,46.505014 435.70203,52.23583 L 435.70203,136.89761 C 435.70203,142.63034 431.26786,144.84742 428.1246,144.84742 C 424.7961,144.84742 420.54335,142.63034 420.54335,136.89761 L 420.54335,130.0573 L 420.17479,130.0573 C 413.15115,140.03896 403.90851,144.84742 393.37114,144.84742 C 365.64133,144.84742 350.11599,120.63134 350.11599,94.564811 C 350.11599,68.502105 365.64133,44.286018 393.37114,44.286018 C 404.64754,44.286018 412.59544,49.09257 420.17479,57.410943 L 420.54335,57.410943 L 420.54335,52.23583 C 420.54335,46.503105 424.7961,44.286018 428.1246,44.286018 M 393.37114,130.79633 C 413.33638,130.79633 420.36193,111.20346 420.36193,94.564811 C 420.36193,77.929976 413.33638,58.335206 393.37114,58.335206 C 373.4059,58.335206 366.38226,77.929976 366.38226,94.564811 C 366.38226,111.20346 373.4059,130.79633 393.37114,130.79633 M 428.1246,37.564101 C 423.39252,37.564101 418.45802,39.958784 415.79981,44.509445 C 408.99387,39.758272 401.7659,37.564101 393.36923,37.564101 C 360.55788,37.564101 343.39216,66.239187 343.39216,94.564811 C 343.39216,122.89234 360.55788,151.56934 393.36923,151.56934 C 401.63986,151.56934 409.16574,149.104 415.6394,144.34137 C 418.2556,149.07536 423.29513,151.56934 428.1246,151.56934 C 435.05658,151.56934 442.42395,146.4286 442.42395,136.89761 L 442.42395,52.233921 C 442.42395,42.70484 435.05658,37.564101 428.1246,37.564101 L 428.1246,37.564101 z M 393.37114,124.0725 C 374.08191,124.0725 373.10418,99.49167 373.10418,94.564811 C 373.10418,89.637951 374.08191,65.057123 393.37114,65.057123 C 412.66228,65.057123 413.64001,89.637951 413.64001,94.564811 C 413.64001,99.49167 412.66228,124.0725 393.37114,124.0725 L 393.37114,124.0725 z" /><path
     style="fill:#033cd2"
     id="path33"
     d="M 479.14624,148.20838 C 472.26964,148.20838 467.64833,143.36746 467.64833,136.15858 L 467.64833,52.97295 C 467.64833,45.765985 472.26964,40.925059 479.14624,40.925059 C 485.42703,40.925059 489.8211,44.963938 490.53531,51.158796 C 495.37623,45.718244 502.18599,40.925059 509.83026,40.925059 C 517.02577,40.925059 522.24862,45.836642 522.24862,52.60248 C 522.24862,57.044292 520.00862,62.76556 509.3414,64.780226 C 503.67933,65.757959 490.63652,70.098561 490.63652,89.389699 L 490.63652,136.15858 C 490.63652,143.36746 486.01711,148.20838 479.14624,148.20838 L 479.14624,148.20838 z" /><path
     style="fill:#00bef5;fill-opacity:0.96078431"
     id="path35"
     d="M 509.82835,44.286018 C 515.55726,44.286018 518.88767,47.983072 518.88767,52.60248 C 518.88767,57.223798 515.55726,60.183733 508.71695,61.476556 C 499.10575,63.139849 487.27365,70.348723 487.27365,89.391608 L 487.27365,136.15667 C 487.27365,141.51893 484.1323,144.84742 479.14242,144.84742 C 474.14872,144.84742 471.00737,141.51893 471.00737,136.15667 L 471.00737,52.97295 C 471.00737,47.612603 474.14872,44.286018 479.14242,44.286018 C 484.1323,44.286018 487.27365,47.612603 487.27365,52.97295 L 487.27365,61.291322 L 487.64603,61.291322 C 491.33926,53.713888 500.40048,44.286018 509.82835,44.286018 M 509.82835,37.564101 C 503.11408,37.564101 497.0147,40.743644 492.0993,44.963938 C 489.64542,40.388452 484.98018,37.564101 479.14433,37.564101 C 470.39629,37.564101 464.28737,43.900271 464.28737,52.97295 L 464.28737,136.15667 C 464.28737,145.23126 470.39629,151.56743 479.14433,151.56743 C 487.88855,151.56743 493.99557,145.23126 493.99557,136.15667 L 493.99557,89.391608 C 493.99557,73.255188 503.93713,69.126556 509.86464,68.101082 C 509.89901,68.095353 509.93147,68.089624 509.96776,68.083895 C 523.57964,65.509707 525.60958,57.281087 525.60958,52.60439 C 525.60958,43.888814 518.9736,37.564101 509.82835,37.564101 L 509.82835,37.564101 z" /></g>
</svg>